<svg width="512" height="464" viewBox="0 0 512 464" fill="none" xmlns="http://www.w3.org/2000/svg">
<path d="M269.778 179.187C276.597 189.817 289.344 195.038 301.661 192.246L372.119 176.272C396.926 170.648 403.917 138.641 383.712 123.186L326.329 79.294C316.297 71.6208 302.534 71.0522 291.904 77.8717L255.434 101.268C241.488 110.214 237.436 128.771 246.382 142.717L269.778 179.187Z" fill="url(#paint0_linear)" stroke="black" stroke-width="20"/>
<path d="M287.894 103.601C286.673 116.172 293.455 128.161 304.859 133.59L404.177 180.872C427.145 191.806 452.443 170.988 446.135 146.346L418.86 39.7822C415.728 27.5469 405.269 18.5832 392.698 17.3617L327.036 10.9811C310.545 9.37869 295.877 21.4482 294.275 37.939L287.894 103.601Z" fill="url(#paint1_linear)" stroke="black" stroke-width="20"/>
<path d="M383.987 146C402.214 146 417 160.786 417 179.013C417 197.239 402.214 212 383.987 212C365.761 212 351 197.239 351 179.013C351 160.786 365.761 146 383.987 146Z" fill="url(#paint2_linear)"/>
<path d="M504.843 175.42L470.797 209.454C469.102 197.683 466.228 186.298 462.286 175.42H504.843Z" fill="#FFD608"/>
<path d="M163.278 343.422L50.9905 455.698H9.35889L146.542 318.526C151.409 327.324 157.002 335.648 163.278 343.422Z" fill="url(#paint3_linear)"/>
<path d="M406.384 242.486C402.288 298.344 355.669 342.387 298.765 342.387C251.133 342.387 210.701 311.513 196.398 268.692C196.387 268.681 382.755 82.3019 382.755 82.3019C419.355 102.54 447.895 135.594 462.286 175.42C466.228 186.298 469.102 197.684 470.797 209.454C471.987 217.646 472.603 226.014 472.603 234.526C472.603 237.19 472.548 239.855 472.416 242.486H406.384ZM404.997 175.42C404.997 167.371 398.468 160.842 390.419 160.842C382.37 160.842 375.852 167.371 375.852 175.42C375.852 183.469 382.37 189.987 390.419 189.987C398.468 189.987 404.997 183.469 404.997 175.42Z" fill="url(#paint4_linear)"/>
<path d="M406.384 242.486H472.416C468.265 334.8 392.104 408.363 298.765 408.363C243.987 408.363 195.132 383.016 163.278 343.422C157.002 335.648 151.409 327.324 146.542 318.526L196.387 268.681C210.701 311.513 251.133 342.387 298.765 342.387C355.669 342.387 402.288 298.344 406.384 242.486Z" fill="url(#paint5_linear)"/>
<path d="M511.371 172.255C510.094 169.169 507.081 167.157 503.742 167.157H466.803C451.449 128.645 423.148 95.8011 385.652 75.0689C385.635 75.059 385.616 75.0524 385.599 75.0425C385.43 74.9511 385.257 74.8696 385.083 74.7904C385.003 74.754 384.925 74.7133 384.843 74.6792C384.691 74.6153 384.536 74.5624 384.381 74.5085C384.273 74.471 384.166 74.4281 384.057 74.3951C383.94 74.3598 383.82 74.3334 383.702 74.3037C383.555 74.2662 383.408 74.2255 383.261 74.1958C383.182 74.1804 383.101 74.1716 383.022 74.1583C382.836 74.1275 382.65 74.0956 382.463 74.078C382.408 74.0725 382.353 74.0725 382.297 74.0692C382.088 74.0526 381.88 74.0394 381.671 74.0394C381.604 74.0394 381.537 74.046 381.468 74.0482C381.275 74.0526 381.081 74.0581 380.888 74.0758C380.766 74.0868 380.646 74.1088 380.525 74.1264C380.388 74.1451 380.252 74.1594 380.117 74.1848C379.942 74.2178 379.769 74.264 379.597 74.3081C379.516 74.329 379.435 74.3433 379.355 74.3664C379.165 74.4215 378.979 74.4887 378.793 74.558C378.731 74.5812 378.667 74.5988 378.607 74.623C378.436 74.6902 378.271 74.7705 378.105 74.8498C378.027 74.8862 377.949 74.9181 377.873 74.9566C377.739 75.026 377.609 75.1053 377.478 75.1823C377.373 75.244 377.267 75.3013 377.164 75.3684C377.066 75.4323 376.972 75.505 376.876 75.5732C376.746 75.6657 376.615 75.756 376.49 75.8562C376.417 75.9157 376.346 75.9828 376.272 76.0445C376.135 76.1634 375.997 76.2823 375.867 76.4111C375.851 76.4277 375.833 76.4409 375.817 76.4563L2.41879 449.864C-0.806262 453.089 -0.806262 458.318 2.41879 461.542C4.03186 463.154 6.14593 463.961 8.25889 463.961C10.3719 463.961 12.4859 463.155 14.099 461.542L143.774 331.865C146.13 335.584 148.602 339.208 151.199 342.721L44.056 449.864C40.8309 453.089 40.8309 458.318 44.056 461.542C45.669 463.154 47.7831 463.961 49.8961 463.961C52.009 463.961 54.1231 463.155 55.7362 461.542L161.682 355.596C195.845 393.927 245.127 416.617 297.67 416.617C398.075 416.617 479.759 334.932 479.759 234.528C479.759 217.07 477.233 199.979 472.485 183.673H483.807L483.332 184.149C480.106 187.374 480.106 192.602 483.331 195.827C484.944 197.44 487.057 198.246 489.171 198.246C491.284 198.246 493.398 197.44 495.01 195.827L509.583 181.254C511.942 178.894 512.649 175.342 511.371 172.255ZM297.668 400.101C247.058 400.101 199.763 376.958 168.623 338.271C168.589 338.228 168.552 338.185 168.517 338.143C163.895 332.388 159.63 326.29 155.764 319.873L192.24 283.397C211.107 324.094 251.983 350.646 297.668 350.646C336.911 350.646 373.235 331.049 394.831 298.224C397.337 294.414 396.281 289.293 392.47 286.786C388.662 284.28 383.541 285.336 381.032 289.145C362.5 317.313 331.334 334.13 297.667 334.13C256.405 334.13 219.718 308.886 204.818 270.816L383.011 92.6223C432.652 122.53 463.241 176.337 463.241 234.528C463.241 325.826 388.964 400.101 297.668 400.101Z" fill="black"/>
<path d="M415 175C415 188.807 403.807 200 390 200C376.193 200 365 188.807 365 175C365 161.193 376.193 150 390 150C403.807 150 415 161.193 415 175ZM372.201 175C372.201 184.83 380.17 192.799 390 192.799C399.83 192.799 407.798 184.83 407.798 175C407.798 165.17 399.83 157.201 390 157.201C380.17 157.201 372.201 165.17 372.201 175Z" fill="black" stroke="black" stroke-width="8"/>
<defs>
<linearGradient id="paint0_linear" x1="276.741" y1="171.522" x2="420.739" y2="157.526" gradientUnits="userSpaceOnUse">
<stop stop-color="#F361CA"/>
<stop offset="0.494792" stop-color="#EF18B2"/>
</linearGradient>
<linearGradient id="paint1_linear" x1="298.581" y1="97.019" x2="456" y2="198" gradientUnits="userSpaceOnUse">
<stop stop-color="#F361CA"/>
<stop offset="0.494792" stop-color="#EF18B2"/>
</linearGradient>
<linearGradient id="paint2_linear" x1="353.302" y1="157.44" x2="418.084" y2="158.938" gradientUnits="userSpaceOnUse">
<stop offset="0.66875" stop-color="#AA28E8"/>
</linearGradient>
<linearGradient id="paint3_linear" x1="14.7282" y1="342.303" x2="165.786" y2="346.221" gradientUnits="userSpaceOnUse">
<stop offset="0.996875" stop-color="#EA43BB"/>
</linearGradient>
<linearGradient id="paint4_linear" x1="206.033" y1="127.383" x2="477.122" y2="134.038" gradientUnits="userSpaceOnUse">
<stop stop-color="#EBB529"/>
<stop offset="0.916667" stop-color="#EF9F27"/>
</linearGradient>
<linearGradient id="paint5_linear" x1="272" y1="152" x2="342.841" y2="509.235" gradientUnits="userSpaceOnUse">
<stop offset="0.151414" stop-color="#D98521"/>
<stop offset="0.979167" stop-color="#EB932B"/>
</linearGradient>
</defs>
</svg>
