<svg width="339" height="335" viewBox="0 0 339 335" fill="none" xmlns="http://www.w3.org/2000/svg">
<rect x="243" y="44" width="96" height="12" rx="6" fill="#F1AD28"/>
<rect x="202" y="21" width="59" height="12" rx="6" fill="#F1AD28"/>
<path d="M91.9663 219.104C90.989 218.127 89.6388 217.564 88.2565 217.564C86.87 217.564 85.5145 218.126 84.5372 219.104C83.56 220.081 82.9973 221.431 82.9973 222.818C82.9973 224.2 83.5595 225.55 84.5372 226.532C85.5192 227.51 86.8747 228.072 88.2565 228.072C89.6388 228.072 90.9885 227.51 91.9663 226.532C92.9487 225.55 93.5104 224.2 93.5104 222.818C93.5104 221.431 92.9487 220.081 91.9663 219.104Z" fill="#F1AD28"/>
<path d="M184.473 123.609H177.117V116.254C177.117 113.353 174.764 111 171.863 111C168.962 111 166.609 113.353 166.609 116.254V123.609H159.254C156.353 123.609 154 125.962 154 128.863C154 131.764 156.353 134.117 159.254 134.117H166.609V141.473C166.609 144.374 168.962 146.727 171.863 146.727C174.764 146.727 177.117 144.374 177.117 141.473V134.117H184.473C187.374 134.117 189.727 131.764 189.727 128.863C189.727 125.962 187.374 123.609 184.473 123.609Z" fill="#F1AD28"/>
<path d="M219.863 258C210.013 258 202 266.013 202 275.863C202 285.713 210.013 293.727 219.863 293.727C229.713 293.727 237.727 285.713 237.727 275.863C237.727 266.013 229.713 258 219.863 258ZM219.863 283.219C215.807 283.219 212.508 279.919 212.508 275.863C212.508 271.807 215.807 268.508 219.863 268.508C223.919 268.508 227.219 271.807 227.219 275.863C227.219 279.919 223.919 283.219 219.863 283.219Z" fill="#F1AD28"/>
<path d="M130.908 211.885C122.217 211.885 115.146 218.956 115.146 227.647C115.146 236.338 122.217 243.408 130.908 243.408C139.599 243.408 146.67 236.338 146.67 227.647C146.67 218.956 139.599 211.885 130.908 211.885ZM130.908 232.901C128.011 232.901 125.654 230.544 125.654 227.647C125.654 224.75 128.011 222.393 130.908 222.393C133.805 222.393 136.162 224.75 136.162 227.647C136.162 230.544 133.805 232.901 130.908 232.901Z" fill="white"/>
<path d="M72.9679 181.539C71.9912 180.562 70.6404 180 69.2539 180C67.8721 180 66.5166 180.562 65.5394 181.539C64.5622 182.517 64 183.872 64 185.254C64 186.636 64.5616 187.991 65.5394 188.968C66.5166 189.945 67.8721 190.508 69.2539 190.508C70.6357 190.508 71.9912 189.946 72.9679 188.968C73.9509 187.991 74.5078 186.636 74.5078 185.254C74.5078 183.872 73.9504 182.517 72.9679 181.539Z" fill="white"/>
<path d="M245.116 162.9C250.907 162.9 255.601 167.594 255.601 173.385V197.82C255.601 205.86 253.201 212.1 248.401 216.54C243.601 220.98 236.671 223.2 227.611 223.2C220.951 223.2 215.611 222.03 211.591 219.69C207.631 217.35 204.901 214.14 203.401 210.06C202.677 208.008 202.233 205.819 202.071 203.494C201.766 199.139 205.321 195.709 209.625 194.982L211.631 194.643C217.365 193.675 221.053 199.011 223.471 204.3V204.3C224.491 206.4 226.231 207.45 228.691 207.45C230.731 207.45 232.231 206.58 233.191 204.84C234.151 203.1 234.631 200.25 234.631 196.29V173.385C234.631 167.594 239.325 162.9 245.116 162.9V162.9ZM289.29 162C297.492 162 304.572 163.507 310.53 166.521C314.24 168.398 314.986 173.115 312.778 176.639V176.639C310.284 180.619 304.98 181.599 300.662 179.751C300.205 179.556 299.744 179.368 299.28 179.19C296.22 177.99 292.89 177.39 289.29 177.39C286.95 177.39 285.3 177.66 284.34 178.2C283.44 178.68 282.99 179.34 282.99 180.18C282.99 180.9 283.53 181.44 284.61 181.8C285.75 182.16 287.16 182.55 288.84 182.97L297.03 184.86C303.09 186.24 307.65 188.28 310.71 190.98C313.83 193.68 315.39 197.43 315.39 202.23C315.39 207.03 314.22 210.99 311.88 214.11C309.54 217.17 306.36 219.45 302.34 220.95C298.38 222.45 293.88 223.2 288.84 223.2C285.06 223.2 281.28 222.87 277.5 222.21C273.72 221.49 270.21 220.47 266.97 219.15C266.083 218.772 265.231 218.375 264.411 217.956C260.864 216.146 260.121 211.671 262.173 208.258L263.085 206.741C265.097 203.395 269.638 202.569 273.18 204.21V204.21C275.64 205.29 278.19 206.16 280.83 206.82C283.47 207.48 285.93 207.81 288.21 207.81C290.37 207.81 291.84 207.57 292.62 207.09C293.46 206.55 293.88 205.89 293.88 205.11C293.88 204.27 293.52 203.64 292.8 203.22C292.14 202.8 290.91 202.38 289.11 201.96L280.11 199.98C276.93 199.26 273.9 198.3 271.02 197.1C268.14 195.9 265.8 194.16 264 191.88C262.2 189.54 261.3 186.39 261.3 182.43C261.3 178.35 262.38 174.78 264.54 171.72C266.76 168.66 269.94 166.29 274.08 164.61C278.28 162.87 283.35 162 289.29 162Z" fill="#F1AD28"/>
<path d="M191.628 304.863L188.07 183.09L234.041 97.8078C241.528 99.2891 249.435 95.8232 253.241 88.7616C257.915 80.0911 254.664 69.2351 245.993 64.5613L188.646 33.6488C179.975 28.975 169.119 32.2265 164.445 40.8971C160.639 47.9587 162.09 56.4692 167.444 61.9094L121.473 147.192L85.1004 169.633C82.6307 171.156 81.8642 174.393 83.3877 176.863C83.8895 177.676 84.5766 178.304 85.3609 178.727C86.9593 179.589 88.9614 179.597 90.6176 178.575L124.353 157.761C124.772 157.822 125.203 157.841 125.643 157.796C126.402 157.72 144.27 156.089 148.209 169.245C150.167 175.784 154.231 180 159.08 182.614C164.903 185.752 171.851 186.574 177.652 186.333L181.125 305.169C181.236 309.003 179.354 312.495 176.09 314.509C172.826 316.523 168.861 316.639 165.485 314.819L23.8479 238.471C20.4713 236.651 18.389 233.276 18.2772 229.442C18.1654 225.608 20.0474 222.116 23.3117 220.102L53.6115 201.408C56.0813 199.884 56.8477 196.647 55.3242 194.178C53.8003 191.708 50.5632 190.941 48.0943 192.465L17.7945 211.159C11.297 215.168 7.55109 222.117 7.7741 229.749C7.9969 237.38 12.1417 244.098 18.862 247.721L160.499 324.069C167.22 327.691 175.11 327.46 181.608 323.452C188.106 319.443 191.851 312.494 191.628 304.863ZM180.197 175.551C178.126 175.796 174.435 176.055 170.583 175.464C160.582 173.93 158.846 168.135 158.275 166.231C154.431 153.397 142.819 148.651 133.256 147.478L176.318 67.5904L224.416 93.517L180.197 175.551ZM234.027 86.7603L177.224 56.1415L176.68 55.8478C173.109 53.9233 171.77 49.4533 173.695 45.883C175.62 42.3126 180.089 40.9738 183.66 42.8984L241.007 73.8109C244.578 75.7355 245.916 80.2054 243.992 83.7757C242.067 87.3461 237.597 88.6849 234.027 86.7603Z" fill="white"/>
</svg>